<svg width="23" height="23" viewBox="0 0 23 23" fill="none" xmlns="http://www.w3.org/2000/svg">
<g opacity="0.4">
<path d="M17.3333 9H5.66667C4.74619 9 4 9.97683 4 11.1818V18.8182C4 20.0232 4.74619 21 5.66667 21H17.3333C18.2538 21 19 20.0232 19 18.8182V11.1818C19 9.97683 18.2538 9 17.3333 9Z" fill="#706D74"/>
<path d="M6.7085 10.5417V6.70833C6.7085 5.4375 7.21333 4.21872 8.11194 3.32011C9.01055 2.4215 10.2293 1.91667 11.5002 1.91667C12.771 1.91667 13.9898 2.4215 14.8884 3.32011C15.787 4.21872 16.2918 5.4375 16.2918 6.70833V10.5417" stroke="#706D74" stroke-width="1.91667" stroke-linecap="round" stroke-linejoin="round"/>
</g>
</svg>
